<svg width="250" height="33" viewBox="0 0 250 33" fill="none" xmlns="http://www.w3.org/2000/svg">
<path d="M76.5343 0.385132C80.1779 3.94183 82.1714 9.09501 81.9884 14.1713C81.9253 18.5543 80.2034 22.879 77.3009 26.1595C74.2588 29.6547 69.8784 31.9619 65.2657 32.4525C59.6915 33.159 53.8723 31.1491 49.8761 27.2054C49.9781 27.084 50.1862 26.8464 50.2882 26.7279C54.1133 28.2175 58.3947 28.5323 62.3849 27.5424C66.7245 26.4938 70.6627 23.9127 73.3868 20.3832C76.705 16.1425 78.1777 10.4915 77.3077 5.17224C77.1277 3.71416 76.6252 2.32737 76.2276 0.920288L76.5353 0.387085L76.5343 0.385132ZM49.7169 0.304077C51.22 0.337079 52.7279 0.260776 54.2325 0.33728L54.5147 0.658569C54.5837 2.13603 54.5397 3.62102 54.5187 5.09998C51.3326 8.20666 50.1151 13.1649 51.5401 17.3861C51.7497 17.7669 51.6053 18.136 51.4044 18.4808C48.7523 16.8247 46.8056 14.0629 46.2296 10.9847C45.4195 7.13853 46.7933 2.93073 49.714 0.304077H49.7169ZM65.7491 0.295288C66.1545 0.300451 66.56 0.320187 66.964 0.354858C68.3365 1.76944 69.0409 3.69025 69.5509 5.56384C68.9808 6.10031 68.0043 5.57847 67.5753 6.29822C67.3503 8.21975 68.0883 10.4729 66.671 12.0795C65.252 14.0084 62.1998 14.2984 60.4161 12.7191C59.4816 11.9481 59.0117 10.7837 58.8302 9.61365C59.6597 9.27166 60.587 9.13702 61.337 8.61951C62.3405 7.89354 63.1173 6.76079 63.173 5.49939C63.2315 3.9828 63.1439 2.46279 63.1964 0.944702C63.1679 0.658239 63.3978 0.278822 63.7247 0.320679C64.2617 0.314679 64.8048 0.296791 65.3448 0.295288H65.7491Z" fill="#7A76D9"/>
<path d="M104.52 28.2998H96.96C95.552 28.2998 94.392 28.0518 93.48 27.5558C92.584 27.0598 91.912 26.3718 91.464 25.4918C91.032 24.6118 90.816 23.5958 90.816 22.4438V15.6758C90.816 13.9478 91.32 12.6518 92.328 11.7878L95.424 9.17179C96.416 8.33979 97.96 7.92379 100.056 7.92379H106.056C106.792 7.92379 107.16 8.29179 107.16 9.02779V11.9318C107.16 12.3318 107.048 12.6278 106.824 12.8198L103.704 15.4118C103.544 15.5718 103.296 15.6518 102.96 15.6518H99.84V19.1078C99.872 19.0598 99.936 18.9878 100.032 18.8918L103.128 16.2758C103.304 16.1318 103.56 16.0598 103.896 16.0598H107.616C108.352 16.0598 108.72 16.4278 108.72 17.1638V24.5798C108.72 24.9798 108.608 25.2758 108.384 25.4678L105.264 28.0598C105.104 28.2198 104.856 28.2998 104.52 28.2998ZM107.616 25.4438C108.192 25.4438 108.48 25.1558 108.48 24.5798V17.1638C108.48 16.5878 108.192 16.2998 107.616 16.2998H103.896C103.32 16.2998 103.032 16.5878 103.032 17.1638V20.9078H100.704C99.968 20.9078 99.6 20.5158 99.6 19.7318V13.9958C99.6 13.1958 100.088 12.7958 101.064 12.7958H106.056C106.632 12.7958 106.92 12.5078 106.92 11.9318V9.02779C106.92 8.45179 106.632 8.16379 106.056 8.16379H100.056C98.04 8.16379 96.552 8.56379 95.592 9.36379C94.632 10.1638 94.152 11.3958 94.152 13.0598V20.5478C94.152 22.2118 94.632 23.4438 95.592 24.2438C96.552 25.0438 98.04 25.4438 100.056 25.4438H107.616ZM105.864 18.4598V23.2838H101.088C99.92 23.2838 99.024 23.1798 98.4 22.9718C97.776 22.7638 97.344 22.4358 97.104 21.9878C96.88 21.5238 96.768 20.9238 96.768 20.1878V13.4678C96.768 12.6998 96.872 12.0918 97.08 11.6438C97.304 11.1798 97.688 10.8438 98.232 10.6358C98.792 10.4278 99.584 10.3238 100.608 10.3238H104.76V10.5638H100.608C99.664 10.5638 98.928 10.6598 98.4 10.8518C97.888 11.0278 97.528 11.3318 97.32 11.7638C97.112 12.1798 97.008 12.7478 97.008 13.4678V20.1878C97.008 20.8758 97.12 21.4358 97.344 21.8678C97.584 22.2838 98 22.5878 98.592 22.7798C99.184 22.9558 100.016 23.0438 101.088 23.0438H105.624V18.4598H105.864ZM122.703 28.2998H111.567C110.831 28.2998 110.463 27.9318 110.463 27.1958V11.6438C110.463 11.2438 110.575 10.9478 110.799 10.7558L113.895 8.13979C114.071 7.99579 114.327 7.92379 114.663 7.92379H125.799C126.535 7.92379 126.903 8.29179 126.903 9.02779V11.8358C126.903 12.2358 126.791 12.5318 126.567 12.7238L124.503 14.4278C124.807 14.5878 124.959 14.9158 124.959 15.4118V17.9798C124.959 18.3798 124.847 18.6758 124.623 18.8678L122.487 20.6678H125.799C126.535 20.6678 126.903 21.0358 126.903 21.7718V24.5798C126.903 24.9798 126.791 25.2758 126.567 25.4678L123.447 28.0598C123.287 28.2198 123.039 28.2998 122.703 28.2998ZM125.799 25.4438C126.375 25.4438 126.663 25.1558 126.663 24.5798V21.7718C126.663 21.1958 126.375 20.9078 125.799 20.9078H119.175V18.8438H123.855C124.431 18.8438 124.719 18.5558 124.719 17.9798V15.4118C124.719 14.8358 124.431 14.5478 123.855 14.5478H119.175V12.6998H125.799C126.375 12.6998 126.663 12.4118 126.663 11.8358V9.02779C126.663 8.45179 126.375 8.16379 125.799 8.16379H114.663C114.087 8.16379 113.799 8.45179 113.799 9.02779V24.5798C113.799 25.1558 114.087 25.4438 114.663 25.4438H125.799ZM124.503 23.0438V23.2838H116.415V10.3238H124.503V10.5638H116.655V16.5878H122.559V16.8278H116.655V23.0438H124.503ZM137.125 25.4678L134.005 28.0598C133.845 28.2198 133.597 28.2998 133.261 28.2998H129.661C128.925 28.2998 128.557 27.9318 128.557 27.1958V11.6438C128.557 11.2438 128.669 10.9478 128.893 10.7558L131.989 8.13979C132.165 7.99579 132.421 7.92379 132.757 7.92379H135.253C135.893 7.92379 136.429 8.16379 136.861 8.64379L138.517 10.5638L141.421 8.13979C141.597 7.99579 141.853 7.92379 142.189 7.92379H145.789C146.525 7.92379 146.893 8.29179 146.893 9.02779V24.5798C146.893 24.9798 146.781 25.2758 146.557 25.4678L143.437 28.0598C143.277 28.2198 143.029 28.2998 142.693 28.2998H139.093C138.357 28.2998 137.989 27.9318 137.989 27.1958V24.3398L137.461 23.6918V24.5798C137.461 24.9798 137.349 25.2758 137.125 25.4678ZM136.357 25.4438C136.933 25.4438 137.221 25.1558 137.221 24.5798V16.6598L141.325 21.6278V24.5798C141.325 25.1558 141.613 25.4438 142.189 25.4438H145.789C146.365 25.4438 146.653 25.1558 146.653 24.5798V9.02779C146.653 8.45179 146.365 8.16379 145.789 8.16379H142.189C141.613 8.16379 141.325 8.45179 141.325 9.02779V14.1398L136.669 8.81179C136.301 8.37979 135.829 8.16379 135.253 8.16379H132.757C132.181 8.16379 131.893 8.45179 131.893 9.02779V24.5798C131.893 25.1558 132.181 25.4438 132.757 25.4438H136.357ZM135.061 10.5158L143.893 20.4518V10.3238H144.133V23.2838H143.893V20.8118L134.821 10.6358C134.773 10.5878 134.733 10.5638 134.701 10.5638C134.669 10.5638 134.653 10.5878 134.653 10.6358V23.2838H134.413V10.5878C134.413 10.3958 134.509 10.2998 134.701 10.2998C134.797 10.2998 134.917 10.3718 135.061 10.5158ZM159.962 28.2998H149.738C149.002 28.2998 148.634 27.9318 148.634 27.1958V24.3398C148.634 23.9398 148.746 23.6438 148.97 23.4518L151.874 21.0038V15.6518H149.738C149.002 15.6518 148.634 15.2838 148.634 14.5478V11.6438C148.634 11.2438 148.746 10.9478 148.97 10.7558L152.066 8.13979C152.242 7.99579 152.498 7.92379 152.834 7.92379H163.058C163.794 7.92379 164.162 8.29179 164.162 9.02779V11.9318C164.162 12.3318 164.05 12.6278 163.826 12.8198L160.97 15.2198V20.6198H163.058C163.794 20.6198 164.162 20.9878 164.162 21.7238V24.5798C164.162 24.9798 164.05 25.2758 163.826 25.4678L160.706 28.0598C160.546 28.2198 160.298 28.2998 159.962 28.2998ZM152.834 25.4438H163.058C163.634 25.4438 163.922 25.1558 163.922 24.5798V21.7238C163.922 21.1478 163.634 20.8598 163.058 20.8598H160.73V12.7958H163.058C163.634 12.7958 163.922 12.5078 163.922 11.9318V9.02779C163.922 8.45179 163.634 8.16379 163.058 8.16379H152.834C152.258 8.16379 151.97 8.45179 151.97 9.02779V11.9318C151.97 12.5078 152.258 12.7958 152.834 12.7958H155.21V20.8598H152.834C152.258 20.8598 151.97 21.1478 151.97 21.7238V24.5798C151.97 25.1558 152.258 25.4438 152.834 25.4438ZM154.13 10.3238H161.762V10.5638H158.09V23.0438H161.762V23.2838H154.13V23.0438H157.85V10.5638H154.13V10.3238ZM173.475 28.6598C171.923 28.6598 170.643 28.4998 169.635 28.1798C168.643 27.8598 167.867 27.4198 167.307 26.8598C166.747 26.3158 166.355 25.6918 166.131 24.9878C165.923 24.2838 165.819 23.5558 165.819 22.8038V11.6438C165.819 11.2438 165.931 10.9478 166.155 10.7558L169.251 8.13979C169.427 7.99579 169.683 7.92379 170.019 7.92379H173.787C174.523 7.92379 174.891 8.29179 174.891 9.02779V19.9718C174.891 20.1158 174.915 20.2438 174.963 20.3558C175.011 20.4678 175.115 20.5638 175.275 20.6438V11.6438C175.275 11.2278 175.371 10.9398 175.563 10.7798L175.587 10.7558L178.707 8.13979C178.883 7.99579 179.139 7.92379 179.475 7.92379H183.123C183.859 7.92379 184.227 8.29179 184.227 9.02779V20.9078C184.227 21.6438 184.123 22.3238 183.915 22.9478C183.707 23.5558 183.331 24.0918 182.787 24.5558L179.667 27.1478C179.107 27.6278 178.331 27.9958 177.339 28.2518C176.347 28.5238 175.059 28.6598 173.475 28.6598ZM183.987 20.9078V9.02779C183.987 8.45179 183.699 8.16379 183.123 8.16379H179.475C178.899 8.16379 178.611 8.45179 178.611 9.02779V19.9718C178.611 20.2918 178.491 20.5638 178.251 20.7878C178.011 20.9958 177.467 21.0998 176.619 21.0998C175.787 21.0998 175.251 20.9958 175.011 20.7878C174.771 20.5638 174.651 20.2918 174.651 19.9718V9.02779C174.651 8.45179 174.363 8.16379 173.787 8.16379H170.019C169.443 8.16379 169.155 8.45179 169.155 9.02779V20.9078C169.155 21.6438 169.259 22.3158 169.467 22.9238C169.691 23.5158 170.075 24.0278 170.619 24.4598C171.179 24.8918 171.939 25.2198 172.899 25.4438C173.859 25.6838 175.083 25.8038 176.571 25.8038C178.059 25.8038 179.283 25.6838 180.243 25.4438C181.203 25.2198 181.955 24.8918 182.499 24.4598C183.059 24.0278 183.443 23.5158 183.651 22.9238C183.875 22.3158 183.987 21.6438 183.987 20.9078ZM171.795 10.3238H172.035V20.3318C172.035 20.9238 172.163 21.4518 172.419 21.9158C172.691 22.3638 173.155 22.7158 173.811 22.9718C174.483 23.2118 175.411 23.3318 176.595 23.3318C177.795 23.3318 178.723 23.2118 179.379 22.9718C180.051 22.7158 180.515 22.3638 180.771 21.9158C181.043 21.4518 181.179 20.9238 181.179 20.3318V10.3238H181.419V20.3318C181.419 20.9718 181.275 21.5398 180.987 22.0358C180.715 22.5158 180.227 22.8918 179.523 23.1638C178.835 23.4358 177.859 23.5718 176.595 23.5718C175.347 23.5718 174.371 23.4358 173.667 23.1638C172.979 22.8918 172.491 22.5158 172.203 22.0358C171.931 21.5398 171.795 20.9718 171.795 20.3318V10.3238ZM186.908 28.2998C186.172 28.2998 185.804 27.9318 185.804 27.1958V24.3878C185.804 23.9878 185.916 23.6918 186.14 23.4998L188.54 21.4838C187.692 21.2118 187.02 20.7798 186.524 20.1878C186.044 19.5798 185.804 18.6918 185.804 17.5238V15.0038C185.804 13.5638 186.268 12.4518 187.196 11.6678L190.316 9.05179C191.212 8.29979 192.476 7.92379 194.108 7.92379H200.828C201.564 7.92379 201.932 8.29179 201.932 9.02779V11.8838C201.932 12.2838 201.82 12.5798 201.596 12.7718L199.436 14.5718C200.46 14.7958 201.276 15.2198 201.884 15.8438C202.492 16.4518 202.796 17.4038 202.796 18.6998V21.2198C202.796 22.6758 202.324 23.7878 201.38 24.5558L198.284 27.1478C197.372 27.9158 196.108 28.2998 194.492 28.2998H186.908ZM197.588 25.4438C199.14 25.4438 200.356 25.0838 201.236 24.3638C202.116 23.6278 202.556 22.5798 202.556 21.2198V18.6998C202.556 17.8038 202.396 17.0838 202.076 16.5398C201.772 15.9958 201.34 15.5878 200.78 15.3158C200.22 15.0278 199.564 14.8278 198.812 14.7158L195.236 14.2358C194.804 14.1878 194.588 13.9318 194.588 13.4678C194.588 12.9878 194.804 12.7478 195.236 12.7478H200.828C201.404 12.7478 201.692 12.4598 201.692 11.8838V9.02779C201.692 8.45179 201.404 8.16379 200.828 8.16379H194.108C192.556 8.16379 191.34 8.52379 190.46 9.24379C189.58 9.96379 189.14 11.0118 189.14 12.3878V14.9078C189.14 16.2518 189.476 17.2118 190.148 17.7878C190.836 18.3478 191.74 18.7158 192.86 18.8918L196.46 19.3958C196.668 19.4118 196.82 19.4838 196.916 19.6118C197.028 19.7398 197.084 19.9398 197.084 20.2118C197.084 20.4038 197.028 20.5718 196.916 20.7158C196.82 20.8438 196.668 20.9078 196.46 20.9078H190.004C189.428 20.9078 189.14 21.1958 189.14 21.7718V24.5798C189.14 25.1558 189.428 25.4438 190.004 25.4438H197.588ZM199.532 10.5638H194.204C193.532 10.5638 192.996 10.7478 192.596 11.1158C192.196 11.4838 191.996 11.9478 191.996 12.5078V14.4758C191.996 15.0358 192.108 15.4278 192.332 15.6518C192.556 15.8598 192.852 16.0038 193.22 16.0838L198.284 17.1158C198.764 17.2118 199.156 17.4198 199.46 17.7398C199.78 18.0438 199.94 18.6198 199.94 19.4678V20.8598C199.94 21.5638 199.7 22.1478 199.22 22.6118C198.74 23.0598 198.092 23.2838 197.276 23.2838H191.3V23.0438H197.276C198.028 23.0438 198.62 22.8438 199.052 22.4438C199.484 22.0278 199.7 21.4998 199.7 20.8598V19.4678C199.7 18.7158 199.564 18.2038 199.292 17.9318C199.036 17.6438 198.684 17.4518 198.236 17.3558L193.172 16.3238C192.756 16.2438 192.412 16.0838 192.14 15.8438C191.884 15.5878 191.756 15.1318 191.756 14.4758V12.5078C191.756 11.8678 191.98 11.3478 192.428 10.9478C192.876 10.5318 193.468 10.3238 194.204 10.3238H199.532V10.5638Z" fill="#7A76D9"/>
</svg>
