<svg width="250" height="37" viewBox="0 0 250 37" fill="none" xmlns="http://www.w3.org/2000/svg">
<path d="M78.4769 36.3234C77.9417 36.2596 77.3804 36.1773 77.2299 36.1402C77.0085 36.0878 76.7858 36.0409 76.5621 35.9997C76.3065 35.9502 76.0529 35.8909 75.8019 35.8219C74.6363 35.4882 74.5527 35.4609 73.6739 35.1019C72.8654 34.7726 71.3758 34.0034 70.8663 33.6534C70.7268 33.5568 70.5963 33.479 70.5763 33.479C70.5566 33.479 70.2304 33.2497 69.8513 32.9696C67.4413 31.1877 65.6319 29.0245 64.3245 26.3602C64.0996 25.9026 63.9159 25.4966 63.9159 25.4584C63.9159 25.4208 63.8754 25.3166 63.8259 25.2289C63.7239 25.0466 63.5785 24.6538 63.4612 24.2479C63.4108 24.0754 63.3521 23.9055 63.2854 23.7386C63.2306 23.6093 63.1865 23.452 63.1865 23.3885C63.1865 23.3248 63.1316 23.1174 63.0647 22.9264C62.9978 22.7368 62.9438 22.5129 62.9438 22.4292C62.9438 22.346 62.8912 22.0583 62.8262 21.7898C62.6682 21.1268 62.5 19.4095 62.5 18.447C62.5 17.4857 62.6682 15.7683 62.8262 15.1056C62.8909 14.8368 62.9438 14.5438 62.9438 14.4539C62.9438 14.3637 62.9845 14.187 63.0338 14.0606C63.0844 13.9347 63.1491 13.7086 63.1789 13.5583C63.2098 13.408 63.2801 13.1489 63.3372 12.981L63.5031 12.4961C63.6249 12.1328 63.7379 11.8255 63.7919 11.7058C63.8229 11.639 63.9435 11.3659 64.061 11.099C64.2511 10.6678 64.6586 9.85449 64.8968 9.42889C64.9837 9.27297 65.0166 9.22128 65.4868 8.48721C66.2318 7.32192 67.5048 5.87204 68.6899 4.8385C69.1075 4.47414 70.5026 3.41616 70.5653 3.41616C70.5828 3.41616 70.7144 3.33722 70.8587 3.24058C71.2375 2.98718 71.6089 2.77199 72.0932 2.52955C72.267 2.44366 72.4392 2.35441 72.6095 2.26182C72.6897 2.21575 72.8401 2.14664 73.6126 1.8011C73.7828 1.72525 73.9661 1.65614 74.4945 1.47157C74.611 1.43111 74.8449 1.34543 75.012 1.28278C75.1801 1.22042 75.3778 1.16872 75.4515 1.16872C75.5241 1.16872 75.715 1.11816 75.8756 1.05579C76.0359 0.993144 76.327 0.921788 76.5235 0.897628C76.7193 0.874592 76.9794 0.81981 77.1014 0.776828C77.2224 0.735251 77.5542 0.681312 77.8385 0.657433C78.2091 0.623989 78.5786 0.580429 78.9468 0.526801C79.7027 0.416115 81.3461 0.416115 82.0942 0.526801C82.4475 0.577451 82.802 0.619136 83.1575 0.651815C83.4255 0.674008 83.7672 0.729913 83.9176 0.775985C84.0681 0.820934 84.3285 0.87712 84.4955 0.897628C84.6626 0.919821 84.9438 0.98893 85.1204 1.05242C85.2975 1.11703 85.4983 1.16872 85.5675 1.16872C85.6367 1.16872 85.7796 1.20721 85.8839 1.25553C85.9893 1.30273 86.2123 1.38167 86.3805 1.43111C86.5476 1.48168 86.8341 1.58141 87.0189 1.65501C87.2022 1.72834 87.4483 1.82497 87.5659 1.8688C87.7824 1.95027 89.3825 2.75007 89.6002 2.88633C91.3665 3.98673 92.2751 4.70562 93.4967 5.96643C94.9698 7.48738 95.9476 8.93585 96.9428 11.0681C97.0131 11.2187 97.1205 11.4415 97.1821 11.562C97.2426 11.6839 97.2932 11.8266 97.2932 11.8794C97.2932 11.9328 97.3438 12.0929 97.4062 12.2359C97.5755 12.6245 97.7204 13.0666 97.7887 13.4046C97.8225 13.5703 97.8852 13.7754 97.9279 13.86C97.9709 13.9443 98.0213 14.1586 98.0412 14.3342C98.0609 14.5095 98.1191 14.7972 98.1686 14.9716C98.4555 15.9636 98.5981 18.8861 98.4245 20.1786C98.3731 20.5627 98.3149 21.027 98.2952 21.2102C98.262 21.524 98.0961 22.3351 97.9543 22.8803L97.8081 23.4576C97.5325 24.5693 96.8514 26.1529 96.0198 27.6179C95.6903 28.1995 94.5853 29.7721 94.3767 29.9564C94.3578 29.9727 94.2645 30.0828 94.17 30.1988C94.0755 30.3163 93.7723 30.6444 93.4979 30.9276C92.2884 32.1752 91.3128 32.9466 89.6002 34.0091C89.3971 34.1352 87.6747 34.9757 87.3527 35.1064C87.1856 35.1732 86.9067 35.2862 86.7332 35.3564C86.5608 35.4258 86.3684 35.4839 86.308 35.4851C86.2475 35.4859 86.0883 35.5399 85.9542 35.6045C85.8203 35.6691 85.6499 35.723 85.5743 35.7241C85.4995 35.7253 85.2809 35.7781 85.0886 35.8416C84.8965 35.9062 84.6294 35.9756 84.4952 35.9961C84.3614 36.0171 84.0748 36.0742 83.8571 36.1225C83.6398 36.1708 82.9826 36.2652 82.3985 36.3321C81.0955 36.4839 79.7791 36.481 78.4769 36.3234ZM79.7994 32.8117C79.8838 32.746 79.9707 32.6151 79.9938 32.5232C80.0444 32.3201 88.2149 15.9568 88.3687 15.7518C88.4984 15.5784 88.5105 15.3009 88.3918 15.2031C88.3294 15.1506 87.547 15.134 85.4587 15.1374C83.8923 15.1407 82.5753 15.1419 82.5323 15.1407C82.4688 15.1385 82.4555 14.0929 82.462 9.6143C82.4665 6.57549 82.4522 4.06145 82.4302 4.02662C82.4083 3.99122 82.3225 3.96285 82.239 3.96285C82.1215 3.96285 82.0666 4.01341 81.9943 4.18984C81.858 4.51796 81.4811 5.26299 79.6467 8.82096C79.2657 9.55932 78.8856 10.2982 78.5064 11.0375C78.1813 11.6729 77.6684 12.6705 77.3683 13.254C76.5606 14.8225 75.7547 16.3919 74.9504 17.9621C73.5631 20.6691 73.3952 20.9919 73.3356 21.0633C73.2203 21.2026 73.1576 21.524 73.2226 21.6448C73.2816 21.7555 73.3995 21.76 76.3281 21.7555C78.0022 21.7535 79.383 21.7622 79.3973 21.7752C79.4358 21.8148 79.4215 32.2566 79.3818 32.5055C79.3557 32.669 79.3731 32.7556 79.4479 32.8303C79.5773 32.9598 79.6127 32.9587 79.7994 32.8117Z" fill="#7A76D9"/>
<path d="M117.684 20.0758H110.868V27.4438H108.516V10.0918H118.98V12.2518H110.868V17.9398H117.684V20.0758ZM123.916 27.7318C121.396 27.7318 119.908 26.3158 119.908 24.1798C119.908 22.0198 121.516 20.6758 124.276 20.4598L127.972 20.1718V19.8358C127.972 17.8678 126.796 17.1718 125.212 17.1718C123.316 17.1718 122.236 18.0118 122.236 19.4278H120.268C120.268 16.9798 122.284 15.3718 125.308 15.3718C128.212 15.3718 130.18 16.9078 130.18 20.0758V27.4438H128.26L128.02 25.5478C127.42 26.8918 125.812 27.7318 123.916 27.7318ZM124.564 25.9798C126.7 25.9798 127.996 24.5878 127.996 22.3798V21.7558L124.996 21.9958C123.004 22.1878 122.188 22.9558 122.188 24.1078C122.188 25.3558 123.1 25.9798 124.564 25.9798ZM132.344 24.0358H134.504C134.504 25.2358 135.416 25.9558 136.904 25.9558C138.488 25.9558 139.4 25.3078 139.4 24.2278C139.4 23.4358 139.016 22.9558 137.792 22.6438L135.728 22.1638C133.64 21.6598 132.656 20.6278 132.656 18.8998C132.656 16.7398 134.48 15.3718 137.072 15.3718C139.64 15.3718 141.32 16.8118 141.368 19.0438H139.208C139.16 17.8678 138.368 17.1238 137 17.1238C135.584 17.1238 134.792 17.7478 134.792 18.8278C134.792 19.6198 135.368 20.1478 136.52 20.4358L138.584 20.9398C140.576 21.4198 141.56 22.3318 141.56 24.0838C141.56 26.3158 139.64 27.7318 136.856 27.7318C134.096 27.7318 132.344 26.2678 132.344 24.0358ZM147.374 27.4438H145.118V17.6038H142.814V15.7078H145.118V12.0358H147.374V15.7078H149.678V17.6038H147.374V27.4438ZM152.806 27.4438H150.358L156.694 10.0918H159.31L165.67 27.4438H163.198L161.638 23.1238H154.342L152.806 27.4438ZM157.702 13.8358L155.062 21.0838H160.942L158.278 13.8358C158.158 13.4998 158.038 13.0918 157.99 12.8278C157.942 13.0678 157.822 13.4758 157.702 13.8358ZM174.721 21.2518H170.329V27.4438H167.977V10.0918H174.721C178.129 10.0918 180.313 12.3238 180.313 15.6598C180.313 18.8998 178.105 21.2518 174.721 21.2518ZM174.313 12.2038H170.329V19.1398H174.217C176.545 19.1398 177.841 17.7718 177.841 15.6358C177.841 13.4518 176.521 12.2038 174.313 12.2038ZM185.329 10.0918V27.4438H182.977V10.0918H185.329Z" fill="#7A76D9"/>
</svg>
