<svg width="250" height="35" viewBox="0 0 250 35" fill="none" xmlns="http://www.w3.org/2000/svg">
<path d="M93.0719 17.4117C93.0719 15.4992 91.4728 13.9485 89.5 13.9485C87.5275 13.9485 85.9281 15.4992 85.9281 17.4117C85.9281 19.3245 87.5275 20.8751 89.5 20.8751C91.4728 20.8751 93.0719 19.3245 93.0719 17.4117Z" fill="#7A76D9"/>
<path fill-rule="evenodd" clip-rule="evenodd" d="M101.101 10.9821C101.855 8.01018 102.803 2.49911 99.4605 0.630686C96.1337 -1.22959 91.8045 2.33505 89.5185 4.47471C87.2392 2.35637 82.7884 -1.19303 79.4488 0.681325C76.1233 2.54785 77.1489 7.96754 77.9199 10.9581C74.8177 11.8123 69.5 13.6523 69.5 17.4117C69.5 21.1603 74.8122 23.1622 77.896 24.0157C77.1221 27.0227 76.1479 32.365 79.4777 34.2274C82.8297 36.1014 87.2667 32.6365 89.5739 30.4734C91.8745 32.6257 96.1621 36.1133 99.4896 34.2457C102.827 32.3722 101.958 26.935 101.187 23.9271C104.176 23.0718 109.5 21.1135 109.5 17.4117C109.5 13.6885 104.154 11.8335 101.101 10.9821ZM100.722 22.3331C100.215 20.7793 99.532 19.1269 98.6961 17.4199C99.494 15.7533 100.151 14.1222 100.643 12.5783C102.881 13.2075 107.791 14.6455 107.791 17.4117C107.791 20.2038 103.079 21.6554 100.722 22.3331ZM98.6333 32.8118C96.1507 34.2051 92.4628 30.8699 90.7637 29.285C91.8909 28.0897 93.0173 26.7001 94.1167 25.157C96.0505 24.9907 97.8773 24.7187 99.5341 24.3474C100.077 26.475 101.127 31.4122 98.6333 32.8118ZM80.3315 32.7919C77.8486 31.4038 78.9834 26.6366 79.5528 24.4215C81.1911 24.773 83.0048 25.0258 84.9432 25.1782C86.0497 26.6881 87.2088 28.0759 88.3768 29.2914C86.9337 30.6449 82.826 34.1865 80.3315 32.7919ZM71.2087 17.4117C71.2087 14.6091 76.0894 13.1815 78.3787 12.5539C78.8793 14.1325 79.5359 15.783 80.3283 17.4521C79.5257 19.1459 78.8597 20.8226 78.3545 22.4198C76.1716 21.8139 71.2087 20.2159 71.2087 17.4117ZM80.3049 2.11519C82.798 0.716019 86.6663 4.12358 88.3212 5.65731C87.1592 6.86719 86.0108 8.24461 84.9137 9.7458C83.0325 9.91487 81.2317 10.1863 79.5761 10.5501C78.955 8.13809 77.8146 3.51286 80.3049 2.11519ZM95.3391 11.5466C96.6153 11.7027 97.8381 11.9105 98.9863 12.1646C98.6416 13.2358 98.212 14.3559 97.706 15.5042C96.9725 14.1549 96.1852 12.8326 95.3391 11.5466ZM89.5191 6.84127C90.3072 7.6691 91.0965 8.59354 91.8731 9.59647C90.298 9.52421 88.7204 9.52394 87.1453 9.59541C87.9225 8.60178 88.7187 7.67871 89.5191 6.84127ZM81.3087 15.503C80.8111 14.3587 80.3853 13.2337 80.0376 12.1471C81.1789 11.8995 82.396 11.6971 83.664 11.5435C82.8155 12.8267 82.0295 14.1485 81.3087 15.503ZM83.7004 23.3981C82.3905 23.2563 81.155 23.0642 80.0141 22.8234C80.3673 21.7178 80.8024 20.5685 81.3106 19.3995C82.0413 20.7682 82.8393 22.1027 83.7004 23.3981ZM89.5664 28.0991C88.7565 27.2518 87.9487 26.3146 87.1597 25.3066C88.7437 25.3669 90.3308 25.367 91.9147 25.2985C91.1357 26.3249 90.3492 27.2634 89.5664 28.0991ZM97.7223 19.3401C98.2569 20.5217 98.7076 21.6647 99.0656 22.7517C97.9057 23.0083 96.6536 23.215 95.3343 23.3685C96.1867 22.0581 96.9865 20.7153 97.7223 19.3401ZM93.1631 23.5693C90.7401 23.7371 88.3021 23.7353 85.8784 23.583C84.5012 21.6325 83.2752 19.5811 82.2169 17.4515C83.2701 15.3263 84.4872 13.279 85.8579 11.3315C88.2833 11.1538 90.7237 11.1533 93.1492 11.3326C94.5081 13.2799 95.7233 15.3219 96.8009 17.4279C95.7361 19.5521 94.5127 21.6035 93.1631 23.5693ZM98.6071 2.06594C101.101 3.46053 99.9908 8.41348 99.446 10.5673C97.7865 10.1959 95.9844 9.91967 94.0977 9.74794C92.9985 8.23053 91.8597 6.85071 90.7165 5.65646C92.3927 4.08969 96.1375 0.684992 98.6071 2.06594Z" fill="#7A76D9"/>
<path d="M122.516 26.4438H119.444V8.89979H126.14C130.124 8.89979 132.452 10.9158 132.452 14.3718C132.452 16.7238 131.348 18.4038 129.284 19.2438L132.62 26.4438H129.26L126.284 19.8918H122.516V26.4438ZM122.516 11.6358V17.1798H126.14C128.084 17.1798 129.236 16.1478 129.236 14.3718C129.236 12.6198 128.084 11.6358 126.14 11.6358H122.516ZM139.55 26.7558C136.022 26.7558 133.55 24.1878 133.55 20.5158C133.55 16.7958 135.974 14.2278 139.454 14.2278C143.006 14.2278 145.262 16.6038 145.262 20.2998V21.1878L136.334 21.2118C136.55 23.2998 137.654 24.3558 139.598 24.3558C141.206 24.3558 142.262 23.7318 142.598 22.6038H145.31C144.806 25.1958 142.646 26.7558 139.55 26.7558ZM139.478 16.6278C137.75 16.6278 136.694 17.5638 136.406 19.3398H142.358C142.358 17.7078 141.23 16.6278 139.478 16.6278ZM151.017 26.7558C148.497 26.7558 146.961 25.2918 146.961 23.0598C146.961 20.8758 148.545 19.5078 151.353 19.2918L154.905 19.0278V18.7638C154.905 17.1558 153.945 16.5078 152.457 16.5078C150.729 16.5078 149.769 17.2278 149.769 18.4758H147.273C147.273 15.9078 149.385 14.2278 152.601 14.2278C155.793 14.2278 157.761 15.9558 157.761 19.2438V26.4438H155.193L154.977 24.6918C154.473 25.9158 152.865 26.7558 151.017 26.7558ZM151.977 24.5478C153.777 24.5478 154.929 23.4678 154.929 21.6438V21.0198L152.457 21.2118C150.633 21.3798 149.937 21.9798 149.937 22.9398C149.937 24.0198 150.657 24.5478 151.977 24.5478ZM159.941 20.4918C159.941 16.8198 162.365 14.2278 165.869 14.2278C169.109 14.2278 171.317 16.0278 171.629 18.8838H168.701C168.365 17.5398 167.381 16.8438 165.989 16.8438C164.117 16.8438 162.869 18.2598 162.869 20.4918C162.869 22.7238 164.021 24.1158 165.893 24.1158C167.357 24.1158 168.389 23.3958 168.701 22.0998H171.653C171.293 24.8598 168.989 26.7558 165.893 26.7558C162.293 26.7558 159.941 24.2598 159.941 20.4918ZM177.864 26.4438H174.936V17.0358H172.656V14.5878H174.936V10.8918H177.864V14.5878H180.168V17.0358H177.864V26.4438Z" fill="#7A76D9"/>
</svg>
