<svg width="250" height="37" viewBox="0 0 250 37" fill="none" xmlns="http://www.w3.org/2000/svg">
<rect x="63.5" y="0.443787" width="36" height="36" rx="18" fill="#7A76D9"/>
<path d="M71 12.7C74.125 11.575 86.375 11.3188 93.5 15.4438" stroke="#282743" stroke-width="2.25" stroke-linecap="round"/>
<path d="M71.75 18.7C74.875 17.575 85.25 16.825 91.25 20.95" stroke="#282743" stroke-width="2.25" stroke-linecap="round"/>
<path d="M71.75 24.7C74.875 23.575 83 22.0749 89 26.1999" stroke="#282743" stroke-width="2.25" stroke-linecap="round"/>
<path d="M108.436 14.7958C108.436 11.7238 110.98 9.58779 114.676 9.58779C118.228 9.58779 120.484 11.5558 120.58 14.7238H117.508C117.436 13.2118 116.356 12.3238 114.628 12.3238C112.732 12.3238 111.508 13.2358 111.508 14.6998C111.508 15.9478 112.18 16.6438 113.644 16.9798L116.404 17.5798C119.404 18.2278 120.868 19.7638 120.868 22.3798C120.868 25.6438 118.324 27.7558 114.46 27.7558C110.716 27.7558 108.268 25.7638 108.196 22.6198H111.268C111.292 24.1078 112.492 24.9958 114.46 24.9958C116.5 24.9958 117.796 24.1078 117.796 22.6438C117.796 21.4678 117.196 20.7718 115.756 20.4598L112.972 19.8358C109.996 19.1878 108.436 17.4838 108.436 14.7958ZM123.215 32.9398V15.5878H125.927L126.119 17.3878C126.839 16.0198 128.399 15.2278 130.199 15.2278C133.535 15.2278 135.743 17.6518 135.743 21.3718C135.743 25.0678 133.727 27.7558 130.199 27.7558C128.423 27.7558 126.887 27.0598 126.143 25.8598V32.9398H123.215ZM126.167 21.5158C126.167 23.6518 127.487 25.1158 129.503 25.1158C131.567 25.1158 132.791 23.6278 132.791 21.5158C132.791 19.4038 131.567 17.8918 129.503 17.8918C127.487 17.8918 126.167 19.3798 126.167 21.5158ZM137.379 21.4918C137.379 17.7958 140.043 15.2518 143.715 15.2518C147.387 15.2518 150.051 17.7958 150.051 21.4918C150.051 25.1878 147.387 27.7318 143.715 27.7318C140.043 27.7318 137.379 25.1878 137.379 21.4918ZM140.307 21.4918C140.307 23.6518 141.699 25.1158 143.715 25.1158C145.731 25.1158 147.123 23.6518 147.123 21.4918C147.123 19.3318 145.731 17.8678 143.715 17.8678C141.699 17.8678 140.307 19.3318 140.307 21.4918ZM156.286 27.4438H153.358V18.0358H151.078V15.5878H153.358V11.8918H156.286V15.5878H158.59V18.0358H156.286V27.4438ZM161.874 13.2118C160.866 13.2118 160.074 12.4198 160.074 11.4358C160.074 10.4518 160.866 9.68379 161.874 9.68379C162.834 9.68379 163.626 10.4518 163.626 11.4358C163.626 12.4198 162.834 13.2118 161.874 13.2118ZM160.41 27.4438V15.5878H163.338V27.4438H160.41ZM165.188 15.5878H166.892V14.1478C166.892 10.9318 168.596 9.58779 171.164 9.58779C171.62 9.58779 172.172 9.61179 172.676 9.70779V12.2038H171.644C170.156 12.2038 169.796 12.9718 169.796 14.1478V15.5878H172.628V18.0358H169.796V27.4438H166.892V18.0358H165.188V15.5878ZM173.464 32.9398V30.4918H175.216C176.368 30.4918 177.088 30.2278 177.592 28.8358L177.928 27.9478L173.152 15.5878H176.248L179.296 24.2278L182.512 15.5878H185.536L179.728 30.0838C178.84 32.2918 177.592 33.2038 175.648 33.2038C174.832 33.2038 174.112 33.1078 173.464 32.9398Z" fill="#7A76D9"/>
</svg>
