<svg width="250" height="37" viewBox="0 0 250 37" fill="none" xmlns="http://www.w3.org/2000/svg">
<path d="M78.4695 2.51248C77.0856 2.51891 75.7641 2.63694 74.6012 2.8427C71.1757 3.44788 70.5537 4.71458 70.5537 7.05059V10.1357H78.6487V11.1641H70.5537H67.5157C65.1631 11.1641 63.1031 12.5782 62.4587 15.2682C61.7155 18.3517 61.6825 20.2758 62.4587 23.4953C63.0341 25.8919 64.4083 27.5994 66.761 27.5994H69.5442V23.901C69.5442 21.2291 71.856 18.8723 74.6012 18.8723H82.6868C84.9375 18.8723 86.7343 17.0191 86.7343 14.7588V7.05059C86.7343 4.8568 84.8836 3.20884 82.6868 2.8427C81.2962 2.61122 79.8533 2.50605 78.4695 2.51248ZM74.0918 4.99382C74.9279 4.99382 75.6107 5.68781 75.6107 6.54112C75.6107 7.3914 74.9279 8.07898 74.0918 8.07898C73.2526 8.07898 72.5728 7.3914 72.5728 6.54112C72.5728 5.68781 73.2526 4.99382 74.0918 4.99382Z" fill="#7A76D9"/>
<path d="M87.744 11.1642V14.7588C87.744 17.5457 85.3813 19.8913 82.687 19.8913H74.6015C72.3867 19.8913 70.554 21.7869 70.554 24.0049V31.713C70.554 33.9068 72.4616 35.1972 74.6015 35.8266C77.1639 36.58 79.6211 36.7162 82.687 35.8266C84.725 35.2365 86.7345 34.049 86.7345 31.713V28.6279H78.649V27.5995H86.7345H90.782C93.1347 27.5995 94.0113 25.9585 94.8295 23.4954C95.6747 20.9597 95.6387 18.5212 94.8295 15.2683C94.2481 12.9262 93.1376 11.1642 90.782 11.1642H87.744ZM83.1965 30.6846C84.0357 30.6846 84.7155 31.3722 84.7155 32.2225C84.7155 33.0758 84.0357 33.7698 83.1965 33.7698C82.3603 33.7698 81.6775 33.0758 81.6775 32.2225C81.6775 31.3722 82.3603 30.6846 83.1965 30.6846Z" fill="#7A76D9"/>
<path d="M112.536 29.6239V13.2689H115.092L115.273 14.9655C115.952 13.6761 117.422 12.9296 119.119 12.9296C122.263 12.9296 124.344 15.2143 124.344 18.7206C124.344 22.2042 122.444 24.7378 119.119 24.7378C117.445 24.7378 115.997 24.0818 115.296 22.9507V29.6239H112.536ZM115.319 18.8563C115.319 20.8696 116.563 22.2495 118.463 22.2495C120.408 22.2495 121.562 20.847 121.562 18.8563C121.562 16.8657 120.408 15.4405 118.463 15.4405C116.563 15.4405 115.319 16.8431 115.319 18.8563ZM129.867 24.7378C127.492 24.7378 126.044 23.3579 126.044 21.2542C126.044 19.1956 127.537 17.9062 130.184 17.7027L133.532 17.4538V17.205C133.532 15.6894 132.627 15.0786 131.224 15.0786C129.596 15.0786 128.691 15.7572 128.691 16.9335H126.338C126.338 14.5131 128.329 12.9296 131.36 12.9296C134.369 12.9296 136.224 14.5583 136.224 17.6574V24.4437H133.803L133.6 22.7924C133.125 23.9461 131.609 24.7378 129.867 24.7378ZM130.772 22.6567C132.469 22.6567 133.554 21.6387 133.554 19.9195V19.3314L131.224 19.5123C129.505 19.6707 128.849 20.2362 128.849 21.1411C128.849 22.159 129.528 22.6567 130.772 22.6567ZM141.695 24.4437H138.935V13.2689H141.491L141.717 14.7167C142.418 13.5856 143.776 12.9296 145.291 12.9296C148.096 12.9296 149.544 14.6714 149.544 17.5669V24.4437H146.784V18.2229C146.784 16.3454 145.857 15.4405 144.432 15.4405C142.735 15.4405 141.695 16.6168 141.695 18.4265V24.4437ZM156.848 24.7378C153.613 24.7378 151.6 22.3626 151.6 18.9016C151.6 15.4179 153.636 12.9296 157.006 12.9296C158.567 12.9296 159.947 13.5856 160.648 14.6941V7.61367H163.385V24.4437H160.852L160.671 22.7019C159.992 23.9913 158.544 24.7378 156.848 24.7378ZM157.458 22.2042C159.381 22.2042 160.625 20.8244 160.625 18.8111C160.625 16.7978 159.381 15.3953 157.458 15.3953C155.536 15.3953 154.359 16.8204 154.359 18.8111C154.359 20.8017 155.536 22.2042 157.458 22.2042ZM169.587 24.7378C167.211 24.7378 165.764 23.3579 165.764 21.2542C165.764 19.1956 167.257 17.9062 169.903 17.7027L173.251 17.4538V17.205C173.251 15.6894 172.346 15.0786 170.944 15.0786C169.315 15.0786 168.41 15.7572 168.41 16.9335H166.058C166.058 14.5131 168.048 12.9296 171.08 12.9296C174.088 12.9296 175.943 14.5583 175.943 17.6574V24.4437H173.523L173.319 22.7924C172.844 23.9461 171.328 24.7378 169.587 24.7378ZM170.491 22.6567C172.188 22.6567 173.274 21.6387 173.274 19.9195V19.3314L170.944 19.5123C169.225 19.6707 168.569 20.2362 168.569 21.1411C168.569 22.159 169.247 22.6567 170.491 22.6567ZM177.795 21.0506H180.419C180.441 22.0233 181.165 22.634 182.432 22.634C183.721 22.634 184.423 22.1138 184.423 21.2994C184.423 20.7339 184.129 20.3267 183.133 20.1005L181.12 19.6254C179.107 19.173 178.134 18.2229 178.134 16.4359C178.134 14.2416 179.989 12.9296 182.568 12.9296C185.079 12.9296 186.775 14.3774 186.798 16.549H184.174C184.151 15.5989 183.518 14.9881 182.455 14.9881C181.369 14.9881 180.735 15.4858 180.735 16.3228C180.735 16.9562 181.233 17.3633 182.183 17.5895L184.196 18.0646C186.074 18.4944 187.024 19.354 187.024 21.0732C187.024 23.3353 185.101 24.7378 182.341 24.7378C179.559 24.7378 177.795 23.2448 177.795 21.0506Z" fill="#7A76D9"/>
</svg>
