<svg width="231" height="80" viewBox="0 0 231 80" fill="none" xmlns="http://www.w3.org/2000/svg">
<g clip-path="url(#clip0_56_342)">
<rect x="0.604614" y="26.3534" width="11.9385" height="53.506" rx="2.35303" fill="#282743"/>
<rect x="18.7816" y="5.55179" width="11.9385" height="74.3077" rx="2.35303" fill="#282743"/>
<rect x="36.9586" y="36.5241" width="11.9385" height="43.3354" rx="2.35303" fill="#282743"/>
<rect x="55.1356" y="16.7838" width="11.9385" height="63.0756" rx="2.35303" fill="#282743"/>
<rect x="73.3125" y="41.9093" width="11.9385" height="37.9502" rx="2.35303" fill="#282743"/>
<rect x="91.4895" y="20.9921" width="11.9385" height="58.8674" rx="2.35303" fill="#282743"/>
<rect x="109.666" y="5.55179" width="11.9385" height="74.3077" rx="2.35303" fill="#282743"/>
<rect x="127.843" y="31.2251" width="11.9385" height="48.6344" rx="2.35303" fill="#282743"/>
<rect x="146.02" y="16.7838" width="11.9385" height="63.0756" rx="2.35303" fill="#282743"/>
<rect x="164.197" y="0.509964" width="11.8763" height="79.3495" rx="2.35303" fill="#282743"/>
<rect x="182.312" y="41.9093" width="11.9385" height="37.9502" rx="2.35303" fill="#282743"/>
<rect x="200.489" y="16.7838" width="11.9385" height="63.0756" rx="2.35303" fill="#282743"/>
<rect x="218.666" y="16.7838" width="11.9385" height="63.0756" rx="2.35303" fill="#282743"/>
<line opacity="0.5" x1="57.3629" y1="79.7263" x2="173.846" y2="79.7262" stroke="#282743" stroke-width="0.266369"/>
</g>
<defs>
<clipPath id="clip0_56_342">
<rect width="230" height="79.3495" fill="white" transform="translate(0.604614 0.509964)"/>
</clipPath>
</defs>
</svg>
