<svg width="178" height="40" viewBox="0 0 178 40" fill="none" xmlns="http://www.w3.org/2000/svg">
<path d="M72.1724 27H67.5208V22.8269L64.4641 19.6107L62.5237 21.6308V27H57.7392V8.81902H62.5237V14.9591H62.6566L67.2284 8.81902H73.3685L67.4411 15.9957L72.1724 20.727V27ZM86.9089 20.8599H77.8184V16.4742H86.9089V20.8599ZM107.334 13.2048H102.018V27H97.2331V13.2048H91.917V8.81902H107.334V13.2048ZM124.516 18.0158L119.731 19.2119V18.0956C119.731 16.9526 119.386 16.6071 118.455 16.6071H117.738C116.621 16.6071 115.611 17.2982 115.611 18.6803V27H110.827V12.2213H115.611V13.444H115.691C116.302 12.7529 117.472 12.2213 119.067 12.2213H120.156C122.788 12.2213 124.516 13.7098 124.516 16.8729V18.0158ZM140.634 17.0855V21.2586H132.155V22.0029C132.155 22.6674 132.554 23.0661 133.351 23.0661H134.813C135.611 23.0661 136.116 22.8535 136.116 22.3219V21.7371L140.634 22.5345V23.0661C140.634 26.1494 138.215 27 135.052 27H132.953C129.763 27 127.637 25.671 127.637 22.4813V16.74C127.637 13.5503 129.763 12.2213 132.953 12.2213H135.318C138.508 12.2213 140.634 13.8959 140.634 17.0855ZM132.155 17.1121V17.6703H136.116V17.1653C136.116 16.5805 135.983 16.0755 134.92 16.0755H133.351C132.315 16.0755 132.155 16.5273 132.155 17.1121ZM158.321 27H153.537V18.2816C153.537 17.1387 153.005 16.6071 152.075 16.6071H151.384C150.294 16.6071 149.284 17.2982 149.284 18.6803V27H144.499V12.2213H149.284V13.444H149.364C149.975 12.7529 151.145 12.2213 152.739 12.2213H153.962C156.594 12.2213 158.321 13.6832 158.321 16.8729V27ZM168.167 16.6071H167.476C166.546 16.6071 166.014 17.1387 166.014 18.2816V20.8599C166.014 22.0029 166.546 22.5345 167.476 22.5345H168.167C169.257 22.5345 170.267 21.8434 170.267 20.4612V18.6803C170.267 17.2982 169.257 16.6071 168.167 16.6071ZM170.267 27V25.7773H170.187C169.576 26.4684 168.406 27 166.811 27H165.589C162.931 27 161.23 25.5381 161.23 22.3484V16.8729C161.23 13.7098 162.957 12.2213 165.589 12.2213H166.811C168.406 12.2213 169.576 12.7529 170.187 13.444H170.267V8.81902H175.051V27H170.267Z" fill="#AC7AFF"/>
<path d="M8.03867 25.2703C9.73949 25.2771 11.6918 24.131 11.6918 22.4301V8.70107C11.6918 7.6842 12.5161 6.85986 13.533 6.85986C14.5499 6.85986 15.3742 7.6842 15.3742 8.70107V10.5423V21.5895L15.3742 32.6368C15.3738 34.258 14.8386 35.8337 13.8514 37.1197C12.8642 38.4057 11.4803 39.33 9.91434 39.7493C8.34833 40.1687 6.68771 40.0596 5.19002 39.439C3.69233 38.8183 2.44126 37.7209 1.63083 36.3168C0.820396 34.9128 0.495888 33.2805 0.70763 31.6732C0.919372 30.0659 1.65553 28.5734 2.80194 27.4271C3.94836 26.2808 5.44096 25.5448 7.04828 25.3333C7.37809 25.2899 7.70895 25.269 8.03867 25.2703ZM8.00938 36.3192C8.98601 36.3192 9.92265 35.9312 10.6132 35.2406C11.3038 34.5501 11.6918 33.6134 11.6918 32.6368C11.6918 31.6601 11.3038 30.7235 10.6132 30.0329C9.92265 29.3423 8.98601 28.9544 8.00938 28.9544C7.03274 28.9544 6.0961 29.3423 5.40551 30.0329C4.71493 30.7235 4.32696 31.6601 4.32696 32.6368C4.32696 33.6134 4.71493 34.5501 5.40551 35.2406C6.0961 35.9312 7.03274 36.3192 8.00938 36.3192Z" fill="#AC7AFF"/>
<rect x="17.3828" y="4.34863" width="3.9056" height="18.8585" rx="1.9528" fill="#AC7AFF"/>
<rect x="23.2974" y="3.23242" width="3.9056" height="20.9786" rx="1.9528" fill="#AC7AFF"/>
<rect x="29.2109" y="0.442871" width="3.9056" height="26.6697" rx="1.9528" fill="#AC7AFF"/>
<rect x="35" y="7" width="4" height="14" rx="2" fill="#AC7AFF"/>
<rect x="41.0396" y="4" width="3.9056" height="19.7512" rx="1.9528" fill="#AC7AFF"/>
</svg>
