<svg width="178" height="40" viewBox="0 0 178 40" fill="none" xmlns="http://www.w3.org/2000/svg">
<path d="M72.1725 26.9999H67.5209V22.8268L64.4642 19.6106L62.5238 21.6307V26.9999H57.7394V8.81896H62.5238V14.959H62.6567L67.2286 8.81896H73.3686L67.4412 15.9957L72.1725 20.727V26.9999ZM86.909 20.8599H77.8186V16.4741H86.909V20.8599ZM107.334 13.2047H102.018V26.9999H97.2332V13.2047H91.9172V8.81896H107.334V13.2047ZM124.516 18.0158L119.731 19.2119V18.0955C119.731 16.9526 119.386 16.607 118.455 16.607H117.738C116.621 16.607 115.611 17.2981 115.611 18.6803V26.9999H110.827V12.2212H115.611V13.4439H115.691C116.302 12.7529 117.472 12.2212 119.067 12.2212H120.157C122.788 12.2212 124.516 13.7097 124.516 16.8728V18.0158ZM140.448 26.9999H135.93V26.043H135.85C135.106 26.6544 134.069 26.9999 132.474 26.9999H131.703C129.125 26.9999 127.291 25.8304 127.291 22.7205V21.7104C127.291 18.6537 129.152 17.4576 131.703 17.4576H132.208C133.803 17.4576 135.106 17.7765 135.85 18.3347H135.93V17.2715C135.93 16.4209 135.451 16.0754 134.601 16.0754H133.298C132.687 16.0754 132.474 16.3678 132.474 16.7133V17.0589L127.956 15.9957V15.6501C127.956 13.63 129.843 12.2212 132.926 12.2212H134.999C138.189 12.2212 140.448 13.949 140.448 17.1386V26.9999ZM134.069 21.1788H132.873C132.288 21.1788 131.81 21.4446 131.81 22.0028V22.2421C131.81 22.8002 132.288 23.066 132.873 23.066H134.069C134.84 23.066 135.93 22.88 135.93 22.2421V22.0028C135.93 21.2852 134.76 21.1788 134.069 21.1788ZM158.321 26.9999H153.537V18.2816C153.537 17.1386 153.005 16.607 152.075 16.607H151.384C150.294 16.607 149.284 17.2981 149.284 18.6803V26.9999H144.5V12.2212H149.284V13.4439H149.364C149.975 12.7529 151.145 12.2212 152.74 12.2212H153.962C156.594 12.2212 158.321 13.6832 158.321 16.8728V26.9999ZM168.167 16.607H167.476C166.546 16.607 166.014 17.1386 166.014 18.2816V20.8599C166.014 22.0028 166.546 22.5344 167.476 22.5344H168.167C169.257 22.5344 170.267 21.8433 170.267 20.4612V18.6803C170.267 17.2981 169.257 16.607 168.167 16.607ZM170.267 26.9999V25.7772H170.187C169.576 26.4683 168.406 26.9999 166.812 26.9999H165.589C162.931 26.9999 161.23 25.538 161.23 22.3484V16.8728C161.23 13.7097 162.957 12.2212 165.589 12.2212H166.812C168.406 12.2212 169.576 12.7529 170.187 13.4439H170.267V8.81896H175.051V26.9999H170.267Z" fill="#AC7AFF"/>
<path d="M8.03867 25.2706C9.73949 25.2774 11.6918 24.1312 11.6918 22.4304V8.70132C11.6918 7.68445 12.5161 6.86012 13.533 6.86012V6.86012C14.5499 6.86012 15.3742 7.68445 15.3742 8.70132V10.5425V21.5898L15.3742 32.637C15.3738 34.2582 14.8386 35.834 13.8514 37.12C12.8642 38.4059 11.4803 39.3303 9.91434 39.7496C8.34833 40.1689 6.68771 40.0598 5.19002 39.4392C3.69233 38.8186 2.44126 37.7212 1.63083 36.3171C0.820396 34.913 0.495888 33.2808 0.70763 31.6735C0.919372 30.0662 1.65553 28.5737 2.80194 27.4274C3.94836 26.2811 5.44096 25.5451 7.04828 25.3335C7.37809 25.2901 7.70895 25.2693 8.03867 25.2706ZM8.00938 36.3195C8.98601 36.3195 9.92265 35.9315 10.6132 35.2409C11.3038 34.5503 11.6918 33.6137 11.6918 32.637C11.6918 31.6604 11.3038 30.7238 10.6132 30.0332C9.92265 29.3426 8.98601 28.9546 8.00938 28.9546C7.03274 28.9546 6.0961 29.3426 5.40551 30.0332C4.71493 30.7238 4.32696 31.6604 4.32696 32.637C4.32696 33.6137 4.71493 34.5503 5.40551 35.2409C6.0961 35.9315 7.03274 36.3195 8.00938 36.3195Z" fill="#AC7AFF"/>
<rect x="17.3826" y="4.34874" width="3.9056" height="18.8585" rx="1.9528" fill="#AC7AFF"/>
<rect x="23.2971" y="3.23257" width="3.9056" height="20.9786" rx="1.9528" fill="#AC7AFF"/>
<rect x="29.2112" y="0.443268" width="3.9056" height="26.6697" rx="1.9528" fill="#AC7AFF"/>
<rect x="35" y="7.0002" width="4" height="14" rx="2" fill="#AC7AFF"/>
<rect x="41.0398" y="4.00041" width="3.9056" height="19.7512" rx="1.9528" fill="#AC7AFF"/>
</svg>
