<svg width="45" height="40" viewBox="0 0 45 40" fill="none" xmlns="http://www.w3.org/2000/svg">
<path d="M8.03867 25.2706C9.73949 25.2774 11.6918 24.1312 11.6918 22.4304V8.70132C11.6918 7.68445 12.5161 6.86012 13.533 6.86012C14.5499 6.86012 15.3742 7.68445 15.3742 8.70132V10.5425V21.5898L15.3742 32.637C15.3738 34.2582 14.8386 35.834 13.8514 37.12C12.8642 38.4059 11.4803 39.3303 9.91434 39.7496C8.34833 40.1689 6.68771 40.0598 5.19002 39.4392C3.69233 38.8186 2.44126 37.7212 1.63083 36.3171C0.820396 34.913 0.495888 33.2808 0.70763 31.6735C0.919372 30.0662 1.65553 28.5737 2.80194 27.4274C3.94836 26.2811 5.44096 25.5451 7.04828 25.3335C7.37809 25.2901 7.70895 25.2693 8.03867 25.2706ZM8.00938 36.3195C8.98601 36.3195 9.92265 35.9315 10.6132 35.2409C11.3038 34.5503 11.6918 33.6137 11.6918 32.637C11.6918 31.6604 11.3038 30.7238 10.6132 30.0332C9.92265 29.3426 8.98601 28.9546 8.00938 28.9546C7.03274 28.9546 6.0961 29.3426 5.40551 30.0332C4.71493 30.7238 4.32696 31.6604 4.32696 32.637C4.32696 33.6137 4.71493 34.5503 5.40551 35.2409C6.0961 35.9315 7.03274 36.3195 8.00938 36.3195Z" fill="#AC7AFF"/>
<rect x="17.3826" y="4.34874" width="3.9056" height="18.8585" rx="1.9528" fill="#AC7AFF"/>
<rect x="23.2971" y="3.23257" width="3.9056" height="20.9786" rx="1.9528" fill="#AC7AFF"/>
<rect x="29.2112" y="0.443268" width="3.9056" height="26.6697" rx="1.9528" fill="#AC7AFF"/>
<rect x="35" y="7.0002" width="4" height="14" rx="2" fill="#AC7AFF"/>
<rect x="41.0398" y="4.00041" width="3.9056" height="19.7512" rx="1.9528" fill="#AC7AFF"/>
</svg>
